<svg xmlns="http://www.w3.org/2000/svg" width="1920" height="1080" viewBox="0 0 1920 1080">
<title>普通朋友 · 陶喆</title>
<defs>
<linearGradient id="sky1" x1="0" y1="0" x2="0" y2="1"><stop offset="0" stop-color="#0b0e22"/><stop offset="0.55" stop-color="#1d2250"/><stop offset="1" stop-color="#3b2557"/></linearGradient>
<radialGradient id="rg2"><stop offset="0" stop-color="#ff5c8a" stop-opacity="0.16"/><stop offset="1" stop-color="#ff5c8a" stop-opacity="0"/></radialGradient>
<radialGradient id="rg3"><stop offset="0" stop-color="#ffe9c7" stop-opacity="0.22"/><stop offset="1" stop-color="#ffe9c7" stop-opacity="0"/></radialGradient>
<mask id="moon4"><rect x="1637" y="57" width="216" height="216" fill="#fff"/><circle cx="1767.7" cy="149.9" r="49.7" fill="#000"/></mask>
<radialGradient id="rg5"><stop offset="0" stop-color="#3ec1c9" stop-opacity="0.14944057520093532"/><stop offset="1" stop-color="#3ec1c9" stop-opacity="0"/></radialGradient>
<radialGradient id="rg6"><stop offset="0" stop-color="#ff5c8a" stop-opacity="0.180918300764294"/><stop offset="1" stop-color="#ff5c8a" stop-opacity="0"/></radialGradient>
<radialGradient id="rg7"><stop offset="0" stop-color="#ff5c8a" stop-opacity="0.17473207954918762"/><stop offset="1" stop-color="#ff5c8a" stop-opacity="0"/></radialGradient>
<radialGradient id="rg8"><stop offset="0" stop-color="#3ec1c9" stop-opacity="0.12908856760607174"/><stop offset="1" stop-color="#3ec1c9" stop-opacity="0"/></radialGradient>
<radialGradient id="rg9"><stop offset="0" stop-color="#ff5c8a" stop-opacity="0.18751781905006887"/><stop offset="1" stop-color="#ff5c8a" stop-opacity="0"/></radialGradient>
<radialGradient id="rg10"><stop offset="0" stop-color="#fff4e0" stop-opacity="0.131014579693422"/><stop offset="1" stop-color="#fff4e0" stop-opacity="0"/></radialGradient>
<radialGradient id="rg11"><stop offset="0" stop-color="#ff5c8a" stop-opacity="0.17249971610616804"/><stop offset="1" stop-color="#ff5c8a" stop-opacity="0"/></radialGradient>
<radialGradient id="rg12"><stop offset="0" stop-color="#3ec1c9" stop-opacity="0.16572631651608322"/><stop offset="1" stop-color="#3ec1c9" stop-opacity="0"/></radialGradient>
<radialGradient id="rg13"><stop offset="0" stop-color="#3ec1c9" stop-opacity="0.14379927033946754"/><stop offset="1" stop-color="#3ec1c9" stop-opacity="0"/></radialGradient>
<radialGradient id="rg14"><stop offset="0" stop-color="#ffb36b" stop-opacity="0.10842871171362267"/><stop offset="1" stop-color="#ffb36b" stop-opacity="0"/></radialGradient>
<radialGradient id="rg15"><stop offset="0" stop-color="#ff5c8a" stop-opacity="0.17961303159219058"/><stop offset="1" stop-color="#ff5c8a" stop-opacity="0"/></radialGradient>
<radialGradient id="rg16"><stop offset="0" stop-color="#ff5c8a" stop-opacity="0.18808982435964985"/><stop offset="1" stop-color="#ff5c8a" stop-opacity="0"/></radialGradient>
<radialGradient id="rg17"><stop offset="0" stop-color="#ffb36b" stop-opacity="0.1567462513565117"/><stop offset="1" stop-color="#ffb36b" stop-opacity="0"/></radialGradient>
<radialGradient id="rg18"><stop offset="0" stop-color="#fff4e0" stop-opacity="0.15819601606340417"/><stop offset="1" stop-color="#fff4e0" stop-opacity="0"/></radialGradient>
<linearGradient id="gnd19" x1="0" y1="0" x2="0" y2="1"><stop offset="0" stop-color="#121633"/><stop offset="1" stop-color="#08091a"/></linearGradient>
<linearGradient id="cone20" gradientUnits="userSpaceOnUse" x1="1232" y1="412" x2="1232" y2="860"><stop offset="0" stop-color="#ffe9c7" stop-opacity="0.45"/><stop offset="1" stop-color="#ffb36b" stop-opacity="0.05"/></linearGradient>
<radialGradient id="rg21"><stop offset="0" stop-color="#ffb36b" stop-opacity="0.55"/><stop offset="1" stop-color="#ffb36b" stop-opacity="0"/></radialGradient>
<radialGradient id="rg22"><stop offset="0" stop-color="#ffb36b" stop-opacity="0.45"/><stop offset="1" stop-color="#ffb36b" stop-opacity="0"/></radialGradient>
<clipPath id="clip23"><circle cx="1262" cy="765" r="95"/></clipPath>
<radialGradient id="rg24"><stop offset="0" stop-color="#3ec1c9" stop-opacity="0.25"/><stop offset="1" stop-color="#3ec1c9" stop-opacity="0"/></radialGradient>
<clipPath id="clip25"><circle cx="1720" cy="740" r="120"/></clipPath>
<radialGradient id="rg26"><stop offset="0" stop-color="#ff5c8a" stop-opacity="0.35"/><stop offset="1" stop-color="#ff5c8a" stop-opacity="0"/></radialGradient>
<radialGradient id="rg27"><stop offset="0" stop-color="#3a3f86" stop-opacity="0.55"/><stop offset="1" stop-color="#3a3f86" stop-opacity="0"/></radialGradient>
</defs>
<rect width="1920" height="1080" fill="url(#sky1)"/>
<ellipse cx="960" cy="860" rx="1440" ry="280.8" fill="url(#rg2)"/>
<circle cx="868.6" cy="329" r="2.4" fill="#fff4e0" opacity="0.58"/>
<circle cx="975.1" cy="351.1" r="1.1" fill="#fff4e0" opacity="0.61"/>
<circle cx="1209.4" cy="526.4" r="1" fill="#fff4e0" opacity="0.46"/>
<circle cx="174.1" cy="541.4" r="2" fill="#fff4e0" opacity="0.28"/>
<circle cx="1885.8" cy="686" r="1.9" fill="#fff4e0" opacity="0.68"/>
<circle cx="302.4" cy="2.5" r="1.7" fill="#fff4e0" opacity="0.29"/>
<circle cx="365.2" cy="106" r="0.9" fill="#fff4e0" opacity="0.57"/>
<circle cx="845.8" cy="571.2" r="1.7" fill="#fff4e0" opacity="0.70"/>
<circle cx="959.6" cy="412.9" r="1.6" fill="#fff4e0" opacity="0.44"/>
<circle cx="1915.5" cy="715.8" r="2.2" fill="#fff4e0" opacity="0.75"/>
<circle cx="605.3" cy="98.8" r="1.3" fill="#fff4e0" opacity="0.30"/>
<circle cx="1471.3" cy="209.3" r="2.2" fill="#fff4e0" opacity="0.52"/>
<circle cx="1839.4" cy="575.7" r="0.8" fill="#fff4e0" opacity="0.40"/>
<circle cx="1747.7" cy="259.8" r="2.5" fill="#fff4e0" opacity="0.53"/>
<circle cx="140.2" cy="385.4" r="2.1" fill="#fff4e0" opacity="0.44"/>
<circle cx="167.3" cy="162.9" r="2.4" fill="#fff4e0" opacity="0.78"/>
<circle cx="226.5" cy="108.6" r="1" fill="#fff4e0" opacity="0.29"/>
<circle cx="1530.3" cy="69.9" r="1.8" fill="#fff4e0" opacity="0.56"/>
<circle cx="366.1" cy="472.4" r="1" fill="#fff4e0" opacity="0.70"/>
<circle cx="223.7" cy="223.8" r="1.2" fill="#fff4e0" opacity="0.44"/>
<circle cx="1864.2" cy="535.8" r="1.3" fill="#fff4e0" opacity="0.87"/>
<circle cx="404.6" cy="205" r="2.3" fill="#fff4e0" opacity="0.70"/>
<circle cx="192.6" cy="709.6" r="1.2" fill="#fff4e0" opacity="0.43"/>
<circle cx="1483.6" cy="160.5" r="1.3" fill="#fff4e0" opacity="0.30"/>
<circle cx="173" cy="347.3" r="1.2" fill="#fff4e0" opacity="0.67"/>
<circle cx="713.7" cy="247.4" r="2.4" fill="#fff4e0" opacity="0.59"/>
<circle cx="1103.2" cy="593.4" r="1.1" fill="#fff4e0" opacity="0.36"/>
<circle cx="1744.2" cy="548.8" r="1.2" fill="#fff4e0" opacity="0.38"/>
<circle cx="1419.7" cy="662.7" r="1.1" fill="#fff4e0" opacity="0.92"/>
<circle cx="1693.8" cy="364.1" r="1.5" fill="#fff4e0" opacity="0.32"/>
<circle cx="74.3" cy="684" r="1.2" fill="#fff4e0" opacity="0.74"/>
<circle cx="493.4" cy="554.2" r="1.8" fill="#fff4e0" opacity="0.46"/>
<circle cx="336.8" cy="462.4" r="0.9" fill="#fff4e0" opacity="0.41"/>
<circle cx="1074" cy="580.4" r="1.8" fill="#fff4e0" opacity="0.45"/>
<circle cx="1761.3" cy="84.2" r="0.8" fill="#fff4e0" opacity="0.44"/>
<circle cx="855.8" cy="16.3" r="1.1" fill="#fff4e0" opacity="0.51"/>
<circle cx="1098.6" cy="46.6" r="1.4" fill="#fff4e0" opacity="0.87"/>
<circle cx="1882.5" cy="408.3" r="2" fill="#fff4e0" opacity="0.66"/>
<circle cx="269.5" cy="7.8" r="0.8" fill="#fff4e0" opacity="0.89"/>
<circle cx="1345.9" cy="684.1" r="0.8" fill="#fff4e0" opacity="0.70"/>
<circle cx="925.9" cy="471.2" r="1.3" fill="#fff4e0" opacity="0.95"/>
<circle cx="144.5" cy="318.2" r="2.1" fill="#fff4e0" opacity="0.88"/>
<circle cx="1415.2" cy="448" r="2.1" fill="#fff4e0" opacity="0.89"/>
<circle cx="675.5" cy="432.2" r="2.3" fill="#fff4e0" opacity="0.86"/>
<circle cx="800.9" cy="524.2" r="2.3" fill="#fff4e0" opacity="0.65"/>
<circle cx="1199.9" cy="196.6" r="1.8" fill="#fff4e0" opacity="0.68"/>
<circle cx="154" cy="393.7" r="2.5" fill="#fff4e0" opacity="0.87"/>
<circle cx="1398.2" cy="200.9" r="2" fill="#fff4e0" opacity="0.66"/>
<circle cx="845.8" cy="567.5" r="0.9" fill="#fff4e0" opacity="0.78"/>
<circle cx="57.2" cy="362.3" r="1.6" fill="#fff4e0" opacity="0.41"/>
<circle cx="1340.8" cy="280.4" r="1.8" fill="#fff4e0" opacity="0.89"/>
<circle cx="491.2" cy="1.7" r="1.3" fill="#fff4e0" opacity="0.72"/>
<circle cx="388.9" cy="65.6" r="2.3" fill="#fff4e0" opacity="0.71"/>
<circle cx="848.5" cy="616.8" r="1.4" fill="#fff4e0" opacity="0.72"/>
<circle cx="381.1" cy="231.1" r="2.2" fill="#fff4e0" opacity="0.89"/>
<circle cx="1690.1" cy="198.1" r="1.8" fill="#fff4e0" opacity="0.47"/>
<circle cx="261.5" cy="279.8" r="2.2" fill="#fff4e0" opacity="0.84"/>
<circle cx="1365.5" cy="671.8" r="1.3" fill="#fff4e0" opacity="0.37"/>
<circle cx="865.2" cy="126.1" r="1.2" fill="#fff4e0" opacity="0.54"/>
<circle cx="1201.4" cy="277.8" r="1.3" fill="#fff4e0" opacity="0.84"/>
<circle cx="1885.5" cy="246.8" r="0.9" fill="#fff4e0" opacity="0.27"/>
<circle cx="1675.8" cy="9.8" r="2" fill="#fff4e0" opacity="0.65"/>
<circle cx="593.3" cy="525.1" r="0.8" fill="#fff4e0" opacity="0.35"/>
<circle cx="873.3" cy="4.9" r="2.2" fill="#fff4e0" opacity="0.42"/>
<circle cx="270.5" cy="11.6" r="1.9" fill="#fff4e0" opacity="0.56"/>
<circle cx="1209.5" cy="406.7" r="2.2" fill="#fff4e0" opacity="0.92"/>
<circle cx="1314.2" cy="81.6" r="1.6" fill="#fff4e0" opacity="0.38"/>
<circle cx="20.7" cy="261.5" r="2" fill="#fff4e0" opacity="0.38"/>
<circle cx="522.9" cy="171.6" r="2" fill="#fff4e0" opacity="0.61"/>
<circle cx="1179.7" cy="493.7" r="1.5" fill="#fff4e0" opacity="0.80"/>
<circle cx="1740" cy="26.7" r="2.4" fill="#fff4e0" opacity="0.76"/>
<circle cx="249.4" cy="247.6" r="1.9" fill="#fff4e0" opacity="0.89"/>
<circle cx="723.5" cy="336.2" r="2.3" fill="#fff4e0" opacity="0.81"/>
<circle cx="1813" cy="255.1" r="1.9" fill="#fff4e0" opacity="0.39"/>
<circle cx="1386.1" cy="549.3" r="1.9" fill="#fff4e0" opacity="0.75"/>
<circle cx="409.5" cy="624.5" r="2.5" fill="#fff4e0" opacity="0.93"/>
<circle cx="1031" cy="524.5" r="1.3" fill="#fff4e0" opacity="0.89"/>
<circle cx="1643.1" cy="173.5" r="0.9" fill="#fff4e0" opacity="0.56"/>
<circle cx="1056.6" cy="504.4" r="1.6" fill="#fff4e0" opacity="0.27"/>
<circle cx="1553.5" cy="17.6" r="2.2" fill="#fff4e0" opacity="0.37"/>
<circle cx="643.2" cy="521.9" r="1" fill="#fff4e0" opacity="0.35"/>
<circle cx="991.7" cy="465.2" r="2.2" fill="#fff4e0" opacity="0.73"/>
<circle cx="1815.8" cy="276.8" r="2.4" fill="#fff4e0" opacity="0.31"/>
<circle cx="425.1" cy="303" r="1.3" fill="#fff4e0" opacity="0.76"/>
<circle cx="1226.6" cy="300" r="2.2" fill="#fff4e0" opacity="0.64"/>
<circle cx="598.5" cy="195.8" r="2.2" fill="#fff4e0" opacity="0.88"/>
<circle cx="399.8" cy="578.9" r="2.4" fill="#fff4e0" opacity="0.62"/>
<circle cx="1100.1" cy="82.5" r="1.7" fill="#fff4e0" opacity="0.60"/>
<circle cx="1162" cy="5.7" r="2.4" fill="#fff4e0" opacity="0.61"/>
<circle cx="769.1" cy="533.7" r="1.8" fill="#fff4e0" opacity="0.59"/>
<circle cx="1326.7" cy="18.3" r="1.7" fill="#fff4e0" opacity="0.54"/>
<circle cx="1837.2" cy="646.6" r="1.3" fill="#fff4e0" opacity="0.58"/>
<circle cx="243.8" cy="233.1" r="2.2" fill="#fff4e0" opacity="0.88"/>
<circle cx="914.9" cy="152.8" r="1.1" fill="#fff4e0" opacity="0.68"/>
<circle cx="1776.5" cy="45.6" r="2.1" fill="#fff4e0" opacity="0.27"/>
<circle cx="372.7" cy="97.4" r="2" fill="#fff4e0" opacity="0.48"/>
<circle cx="682.3" cy="377.4" r="1" fill="#fff4e0" opacity="0.76"/>
<circle cx="235.7" cy="290.5" r="1.2" fill="#fff4e0" opacity="0.39"/>
<circle cx="1018.3" cy="235.3" r="1.4" fill="#fff4e0" opacity="0.54"/>
<circle cx="1016.3" cy="60.5" r="1.1" fill="#fff4e0" opacity="0.69"/>
<circle cx="1225.9" cy="305.3" r="2.2" fill="#fff4e0" opacity="0.68"/>
<circle cx="1645" cy="100.6" r="2.1" fill="#fff4e0" opacity="0.82"/>
<circle cx="1733.1" cy="151.9" r="1.3" fill="#fff4e0" opacity="0.90"/>
<circle cx="418.8" cy="718.4" r="2.3" fill="#fff4e0" opacity="0.34"/>
<circle cx="459.5" cy="467.8" r="1.2" fill="#fff4e0" opacity="0.32"/>
<circle cx="1597.8" cy="224.4" r="2.1" fill="#fff4e0" opacity="0.34"/>
<circle cx="773.3" cy="432.2" r="0.8" fill="#fff4e0" opacity="0.39"/>
<circle cx="1310.2" cy="635.2" r="2.4" fill="#fff4e0" opacity="0.33"/>
<circle cx="970.9" cy="495.5" r="1.7" fill="#fff4e0" opacity="0.73"/>
<circle cx="362.9" cy="20.1" r="1" fill="#fff4e0" opacity="0.28"/>
<circle cx="1059.2" cy="293.8" r="1.8" fill="#fff4e0" opacity="0.35"/>
<circle cx="354.3" cy="84.2" r="2.2" fill="#fff4e0" opacity="0.94"/>
<circle cx="1779.6" cy="30.1" r="0.9" fill="#fff4e0" opacity="0.92"/>
<circle cx="887.2" cy="501.3" r="1.4" fill="#fff4e0" opacity="0.58"/>
<circle cx="989.4" cy="230.5" r="1.8" fill="#fff4e0" opacity="0.26"/>
<circle cx="1346" cy="572.9" r="1.1" fill="#fff4e0" opacity="0.57"/>
<circle cx="1419.5" cy="212.7" r="1.1" fill="#fff4e0" opacity="0.37"/>
<circle cx="984.1" cy="2.6" r="2.3" fill="#fff4e0" opacity="0.81"/>
<circle cx="1353" cy="588" r="1.9" fill="#fff4e0" opacity="0.53"/>
<circle cx="1151.2" cy="285.7" r="2.5" fill="#fff4e0" opacity="0.81"/>
<circle cx="495.9" cy="635.1" r="2.1" fill="#fff4e0" opacity="0.79"/>
<circle cx="1564.1" cy="213" r="2.3" fill="#fff4e0" opacity="0.87"/>
<circle cx="1334" cy="503.5" r="2.1" fill="#fff4e0" opacity="0.53"/>
<circle cx="1387.5" cy="20.1" r="1.4" fill="#fff4e0" opacity="0.58"/>
<circle cx="20.3" cy="178.3" r="1.9" fill="#fff4e0" opacity="0.69"/>
<circle cx="445.6" cy="666.8" r="1.9" fill="#fff4e0" opacity="0.49"/>
<circle cx="1266.7" cy="336.8" r="1.7" fill="#fff4e0" opacity="0.52"/>
<circle cx="1919.8" cy="396" r="2" fill="#fff4e0" opacity="0.78"/>
<circle cx="1881.8" cy="4.4" r="1.8" fill="#fff4e0" opacity="0.77"/>
<circle cx="492.7" cy="210.1" r="0.9" fill="#fff4e0" opacity="0.39"/>
<circle cx="721.3" cy="31.5" r="1.2" fill="#fff4e0" opacity="0.88"/>
<circle cx="1056.1" cy="288.4" r="2.4" fill="#fff4e0" opacity="0.65"/>
<circle cx="1910.6" cy="392.5" r="2.2" fill="#fff4e0" opacity="0.30"/>
<circle cx="1147.3" cy="496.4" r="0.9" fill="#fff4e0" opacity="0.90"/>
<circle cx="307.1" cy="261.1" r="1.1" fill="#fff4e0" opacity="0.60"/>
<circle cx="1173.4" cy="15.6" r="2.4" fill="#fff4e0" opacity="0.54"/>
<circle cx="1011.4" cy="359.5" r="1.4" fill="#fff4e0" opacity="0.45"/>
<circle cx="1257.8" cy="329.7" r="1.3" fill="#fff4e0" opacity="0.75"/>
<circle cx="568.4" cy="2.3" r="1.2" fill="#fff4e0" opacity="0.28"/>
<circle cx="300.6" cy="492.4" r="1.5" fill="#fff4e0" opacity="0.88"/>
<circle cx="1436.9" cy="12.7" r="2.5" fill="#fff4e0" opacity="0.91"/>
<circle cx="141.1" cy="629.7" r="1.5" fill="#fff4e0" opacity="0.58"/>
<circle cx="1868.5" cy="107.1" r="1.7" fill="#fff4e0" opacity="0.91"/>
<circle cx="1387.7" cy="258.6" r="2.5" fill="#fff4e0" opacity="0.82"/>
<circle cx="1159" cy="38.9" r="1.9" fill="#fff4e0" opacity="0.57"/>
<circle cx="391" cy="13.3" r="1.7" fill="#fff4e0" opacity="0.34"/>
<circle cx="850.3" cy="417.5" r="1.6" fill="#fff4e0" opacity="0.43"/>
<circle cx="1117.9" cy="222.9" r="2.1" fill="#fff4e0" opacity="0.62"/>
<circle cx="1915.5" cy="674.3" r="2" fill="#fff4e0" opacity="0.42"/>
<circle cx="218.6" cy="617.7" r="2.1" fill="#fff4e0" opacity="0.69"/>
<path d="M1082,318.5 Q1082,327.7 1091.1,327.7 Q1082,327.7 1082,336.8 Q1082,327.7 1072.8,327.7 Q1082,327.7 1082,318.5 Z" fill="#fff4e0" opacity="0.85"/>
<path d="M1436.3,48.7 Q1436.3,59.5 1447.1,59.5 Q1436.3,59.5 1436.3,70.3 Q1436.3,59.5 1425.5,59.5 Q1436.3,59.5 1436.3,48.7 Z" fill="#fff4e0" opacity="0.85"/>
<path d="M1861.9,622.4 Q1861.9,630.9 1870.4,630.9 Q1861.9,630.9 1861.9,639.4 Q1861.9,630.9 1853.4,630.9 Q1861.9,630.9 1861.9,622.4 Z" fill="#fff4e0" opacity="0.85"/>
<path d="M94.3,-1.5 Q94.3,10.8 106.5,10.8 Q94.3,10.8 94.3,23.1 Q94.3,10.8 82,10.8 Q94.3,10.8 94.3,-1.5 Z" fill="#fff4e0" opacity="0.85"/>
<path d="M156.3,9.7 Q156.3,18.3 164.9,18.3 Q156.3,18.3 156.3,26.9 Q156.3,18.3 147.7,18.3 Q156.3,18.3 156.3,9.7 Z" fill="#fff4e0" opacity="0.85"/>
<path d="M1055.2,349.9 Q1055.2,361 1066.2,361 Q1055.2,361 1055.2,372 Q1055.2,361 1044.1,361 Q1055.2,361 1055.2,349.9 Z" fill="#fff4e0" opacity="0.85"/>
<ellipse cx="1745" cy="165" rx="172.8" ry="172.8" fill="url(#rg3)"/>
<circle cx="1745" cy="165" r="54" fill="#fff1d6" mask="url(#moon4)"/>
<ellipse cx="918.8" cy="181.1" rx="37.4" ry="37.4" fill="url(#rg5)"/>
<ellipse cx="1669.6" cy="689.9" rx="24.9" ry="24.9" fill="url(#rg6)"/>
<ellipse cx="1476" cy="183.3" rx="50.4" ry="50.4" fill="url(#rg7)"/>
<ellipse cx="289.3" cy="132" rx="38.3" ry="38.3" fill="url(#rg8)"/>
<ellipse cx="1255.3" cy="499.3" rx="57.5" ry="57.5" fill="url(#rg9)"/>
<ellipse cx="573.8" cy="666.9" rx="22.1" ry="22.1" fill="url(#rg10)"/>
<ellipse cx="1159.1" cy="597.8" rx="65.4" ry="65.4" fill="url(#rg11)"/>
<ellipse cx="543.2" cy="122.9" rx="54.1" ry="54.1" fill="url(#rg12)"/>
<ellipse cx="1732.6" cy="590.9" rx="35" ry="35" fill="url(#rg13)"/>
<ellipse cx="767.2" cy="803.8" rx="59.8" ry="59.8" fill="url(#rg14)"/>
<ellipse cx="46.3" cy="582.2" rx="61.1" ry="61.1" fill="url(#rg15)"/>
<ellipse cx="340.4" cy="77.2" rx="56.4" ry="56.4" fill="url(#rg16)"/>
<ellipse cx="42.7" cy="443.5" rx="32.6" ry="32.6" fill="url(#rg17)"/>
<ellipse cx="1250.3" cy="691.7" rx="68.3" ry="68.3" fill="url(#rg18)"/>
<rect x="-49.9" y="663.5" width="123.6" height="198.5" fill="#1a1f45"/>
<rect x="-9.8" y="637.5" width="29.4" height="28" fill="#1a1f45"/>
<rect x="-35.9" y="685.5" width="12" height="18" fill="#e0a26a" opacity="0.23"/>
<rect x="-35.9" y="725.5" width="12" height="18" fill="#e0a26a" opacity="0.29"/>
<rect x="-35.9" y="765.5" width="12" height="18" fill="#e0a26a" opacity="0.32"/>
<rect x="111.9" y="671.2" width="105" height="190.8" fill="#1a1f45"/>
<rect x="146.4" y="645.2" width="25.3" height="28" fill="#1a1f45"/>
<rect x="125.9" y="733.2" width="12" height="18" fill="#e0a26a" opacity="0.31"/>
<rect x="153.9" y="733.2" width="12" height="18" fill="#e0a26a" opacity="0.24"/>
<rect x="153.9" y="773.2" width="12" height="18" fill="#e0a26a" opacity="0.26"/>
<rect x="200.4" y="733.5" width="149.5" height="128.5" fill="#1a1f45"/>
<rect x="248.2" y="707.5" width="35.1" height="28" fill="#1a1f45"/>
<rect x="214.4" y="755.5" width="12" height="18" fill="#e0a26a" opacity="0.34"/>
<rect x="391.4" y="700" width="148.2" height="162" fill="#1a1f45"/>
<rect x="461.4" y="722" width="12" height="18" fill="#e0a26a" opacity="0.26"/>
<rect x="526.9" y="673.4" width="156" height="188.6" fill="#1a1f45"/>
<rect x="714.1" y="724.4" width="174.9" height="137.6" fill="#1a1f45"/>
<rect x="812.1" y="786.4" width="12" height="18" fill="#e0a26a" opacity="0.34"/>
<rect x="862.1" y="676.3" width="189.6" height="185.7" fill="#1a1f45"/>
<rect x="960.1" y="738.3" width="12" height="18" fill="#e0a26a" opacity="0.28"/>
<rect x="1083.7" y="590.8" width="104.1" height="271.2" fill="#1a1f45"/>
<rect x="1097.7" y="692.8" width="12" height="18" fill="#e0a26a" opacity="0.31"/>
<rect x="1125.7" y="612.8" width="12" height="18" fill="#e0a26a" opacity="0.21"/>
<rect x="1190.6" y="577.1" width="94.1" height="284.9" fill="#1a1f45"/>
<rect x="1232.6" y="599.1" width="12" height="18" fill="#e0a26a" opacity="0.19"/>
<rect x="1316.9" y="569.9" width="103.4" height="292.1" fill="#1a1f45"/>
<rect x="1330.9" y="671.9" width="12" height="18" fill="#e0a26a" opacity="0.31"/>
<rect x="1383.7" y="545.1" width="173" height="316.9" fill="#1a1f45"/>
<rect x="1438.6" y="519.1" width="40.3" height="28" fill="#1a1f45"/>
<rect x="1397.7" y="607.1" width="12" height="18" fill="#e0a26a" opacity="0.23"/>
<rect x="1425.7" y="607.1" width="12" height="18" fill="#e0a26a" opacity="0.29"/>
<rect x="1453.7" y="567.1" width="12" height="18" fill="#e0a26a" opacity="0.26"/>
<rect x="1453.7" y="647.1" width="12" height="18" fill="#e0a26a" opacity="0.19"/>
<rect x="1576.2" y="492.9" width="124.9" height="369.1" fill="#1a1f45"/>
<rect x="1618.2" y="554.9" width="12" height="18" fill="#e0a26a" opacity="0.30"/>
<rect x="1646.2" y="794.9" width="12" height="18" fill="#e0a26a" opacity="0.29"/>
<rect x="1725.1" y="639.1" width="175.4" height="222.9" fill="#1a1f45"/>
<rect x="1739.1" y="701.1" width="12" height="18" fill="#e0a26a" opacity="0.33"/>
<rect x="1795.1" y="701.1" width="12" height="18" fill="#e0a26a" opacity="0.34"/>
<rect x="1851.1" y="661.1" width="12" height="18" fill="#e0a26a" opacity="0.30"/>
<rect x="1930.6" y="535.7" width="108.2" height="326.3" fill="#1a1f45"/>
<rect x="1972.6" y="797.7" width="12" height="18" fill="#e0a26a" opacity="0.27"/>
<rect x="2000.6" y="557.7" width="12" height="18" fill="#e0a26a" opacity="0.25"/>
<rect x="2000.6" y="757.7" width="12" height="18" fill="#e0a26a" opacity="0.31"/>
<rect x="-40" y="723.8" width="176.6" height="138.2" fill="#141938"/>
<rect x="-26" y="745.8" width="12" height="18" fill="#e0a26a" opacity="0.61"/>
<rect x="30" y="785.8" width="12" height="18" fill="#e0a26a" opacity="0.85"/>
<rect x="146.6" y="753.6" width="102.9" height="108.4" fill="#141938"/>
<rect x="259.5" y="762.9" width="136.2" height="99.1" fill="#141938"/>
<rect x="273.5" y="784.9" width="12" height="18" fill="#e0a26a" opacity="0.73"/>
<rect x="405.8" y="674.3" width="176.9" height="187.7" fill="#141938"/>
<rect x="419.8" y="696.3" width="12" height="18" fill="#e0a26a" opacity="0.83"/>
<rect x="419.8" y="736.3" width="12" height="18" fill="#e0a26a" opacity="0.84"/>
<rect x="447.8" y="736.3" width="12" height="18" fill="#e0a26a" opacity="0.86"/>
<rect x="592.6" y="698.4" width="108.1" height="163.6" fill="#141938"/>
<rect x="606.6" y="720.4" width="12" height="18" fill="#e0a26a" opacity="0.48"/>
<rect x="606.6" y="800.4" width="12" height="18" fill="#e0a26a" opacity="0.85"/>
<rect x="634.6" y="800.4" width="12" height="18" fill="#e0a26a" opacity="0.78"/>
<rect x="662.6" y="720.4" width="12" height="18" fill="#e0a26a" opacity="0.53"/>
<rect x="710.7" y="750.8" width="148.4" height="111.2" fill="#141938"/>
<rect x="724.7" y="772.8" width="12" height="18" fill="#e0a26a" opacity="0.59"/>
<rect x="780.7" y="772.8" width="12" height="18" fill="#e0a26a" opacity="0.60"/>
<rect x="808.7" y="772.8" width="12" height="18" fill="#e0a26a" opacity="0.80"/>
<rect x="869" y="674.7" width="175.4" height="187.3" fill="#141938"/>
<rect x="924.7" y="648.7" width="40.8" height="28" fill="#141938"/>
<rect x="883" y="776.7" width="12" height="18" fill="#e0a26a" opacity="0.59"/>
<rect x="911" y="776.7" width="12" height="18" fill="#e0a26a" opacity="0.74"/>
<rect x="967" y="696.7" width="12" height="18" fill="#e0a26a" opacity="0.88"/>
<rect x="995" y="696.7" width="12" height="18" fill="#e0a26a" opacity="0.82"/>
<rect x="995" y="776.7" width="12" height="18" fill="#e0a26a" opacity="0.64"/>
<rect x="1054.5" y="656.2" width="186.7" height="205.8" fill="#141938"/>
<rect x="1068.5" y="758.2" width="12" height="18" fill="#e0a26a" opacity="0.84"/>
<rect x="1068.5" y="798.2" width="12" height="18" fill="#e0a26a" opacity="0.76"/>
<rect x="1096.5" y="678.2" width="12" height="18" fill="#e0a26a" opacity="0.77"/>
<rect x="1096.5" y="758.2" width="12" height="18" fill="#e0a26a" opacity="0.57"/>
<rect x="1124.5" y="718.2" width="12" height="18" fill="#e0a26a" opacity="0.68"/>
<rect x="1152.5" y="678.2" width="12" height="18" fill="#e0a26a" opacity="0.55"/>
<rect x="1152.5" y="718.2" width="12" height="18" fill="#e0a26a" opacity="0.75"/>
<rect x="1152.5" y="798.2" width="12" height="18" fill="#e0a26a" opacity="0.86"/>
<rect x="1180.5" y="678.2" width="12" height="18" fill="#e0a26a" opacity="0.86"/>
<rect x="1180.5" y="718.2" width="12" height="18" fill="#e0a26a" opacity="0.71"/>
<rect x="1251.1" y="685.5" width="152.5" height="176.5" fill="#141938"/>
<rect x="1265.1" y="707.5" width="12" height="18" fill="#e0a26a" opacity="0.53"/>
<rect x="1265.1" y="787.5" width="12" height="18" fill="#e0a26a" opacity="0.81"/>
<rect x="1293.1" y="707.5" width="12" height="18" fill="#e0a26a" opacity="0.85"/>
<rect x="1321.1" y="747.5" width="12" height="18" fill="#e0a26a" opacity="0.85"/>
<rect x="1321.1" y="787.5" width="12" height="18" fill="#e0a26a" opacity="0.48"/>
<rect x="1413.7" y="708.3" width="143.2" height="153.7" fill="#141938"/>
<rect x="1459.6" y="682.3" width="33.7" height="28" fill="#141938"/>
<rect x="1511.7" y="770.3" width="12" height="18" fill="#e0a26a" opacity="0.65"/>
<rect x="1566.9" y="619.6" width="163.5" height="242.4" fill="#141938"/>
<rect x="1618.9" y="593.6" width="38.2" height="28" fill="#141938"/>
<rect x="1580.9" y="721.6" width="12" height="18" fill="#e0a26a" opacity="0.69"/>
<rect x="1608.9" y="641.6" width="12" height="18" fill="#e0a26a" opacity="0.54"/>
<rect x="1608.9" y="721.6" width="12" height="18" fill="#e0a26a" opacity="0.65"/>
<rect x="1664.9" y="681.6" width="12" height="18" fill="#e0a26a" opacity="0.50"/>
<rect x="1664.9" y="721.6" width="12" height="18" fill="#e0a26a" opacity="0.74"/>
<rect x="1740.4" y="704.5" width="158.6" height="157.5" fill="#141938"/>
<rect x="1908.9" y="671.1" width="131.7" height="190.9" fill="#141938"/>
<rect x="1950.9" y="693.1" width="12" height="18" fill="#e0a26a" opacity="0.66"/>
<rect x="1978.9" y="733.1" width="12" height="18" fill="#e0a26a" opacity="0.79"/>
<rect y="860" width="1920" height="220" fill="url(#gnd19)"/>
<rect y="858" width="1920" height="3" fill="#2c3366"/>
<rect x="40" y="902" width="80" height="6" rx="3" fill="#1f2547"/>
<rect x="200" y="902" width="80" height="6" rx="3" fill="#1f2547"/>
<rect x="360" y="902" width="80" height="6" rx="3" fill="#1f2547"/>
<rect x="520" y="902" width="80" height="6" rx="3" fill="#1f2547"/>
<rect x="680" y="902" width="80" height="6" rx="3" fill="#1f2547"/>
<rect x="840" y="902" width="80" height="6" rx="3" fill="#1f2547"/>
<rect x="1000" y="902" width="80" height="6" rx="3" fill="#1f2547"/>
<rect x="1160" y="902" width="80" height="6" rx="3" fill="#1f2547"/>
<rect x="1320" y="902" width="80" height="6" rx="3" fill="#1f2547"/>
<rect x="1480" y="902" width="80" height="6" rx="3" fill="#1f2547"/>
<rect x="1640" y="902" width="80" height="6" rx="3" fill="#1f2547"/>
<rect x="1800" y="902" width="80" height="6" rx="3" fill="#1f2547"/>
<polygon points="1214,418 1250,418 1482,860 982,860" fill="url(#cone20)"/>
<ellipse cx="1232" cy="860" rx="250" ry="24" fill="#ffe9c7" opacity="0.12"/>
<rect x="1133" y="390" width="14" height="470" fill="#2b3272"/>
<rect x="1114" y="846" width="52" height="14" rx="5" fill="#2b3272"/>
<rect x="1133" y="383" width="92" height="14" rx="7" fill="#2b3272"/>
<rect x="1202" y="378" width="60" height="26" rx="13" fill="#3b4392"/>
<ellipse cx="1232" cy="412" rx="180" ry="180" fill="url(#rg21)"/>
<circle cx="1232" cy="412" r="14" fill="#fff1d6"/>
<path d="M1347.5,773 Q1398.8,803 1450,662.5 M1540,662.5 Q1576,780 1612,750" fill="none" stroke="#ff5c8a" stroke-width="5" stroke-linecap="round" opacity="0.9"/>
<ellipse cx="1262" cy="860" rx="90.2" ry="13.3" fill="#000" opacity="0.35"/>
<ellipse cx="1262" cy="765" rx="228" ry="228" fill="url(#rg22)"/>
<circle cx="1262" cy="765" r="95" fill="#ff7a59"/>
<g clip-path="url(#clip23)"><circle cx="1233.5" cy="730.8" r="58.9" fill="#fff" opacity="0.18"/><circle cx="1292.4" cy="804.9" r="81.7" fill="#000" opacity="0.12"/></g>
<circle cx="1258.2" cy="753.1" r="8.1" fill="#15142a"/>
<circle cx="1261" cy="750.3" r="3" fill="#fff"/>
<circle cx="1296.2" cy="753.1" r="8.1" fill="#15142a"/>
<circle cx="1299" cy="750.3" r="3" fill="#fff"/>
<circle cx="1266.8" cy="803" r="25.7" fill="#3ec1c9"/>
<circle cx="1266.8" cy="803" r="20.5" fill="none" stroke="#fff4e0" stroke-width="1.8" stroke-dasharray="4.6 3.1"/>
<text x="1266.8" y="803" font-family="'Microsoft YaHei', 'PingFang SC', 'Noto Sans SC', sans-serif" font-size="17.4" font-weight="900" fill="#fff4e0" text-anchor="middle" dominant-baseline="central">朋友</text>
<ellipse cx="1720" cy="860" rx="114" ry="16.8" fill="#000" opacity="0.35"/>
<ellipse cx="1720" cy="740" rx="288" ry="288" fill="url(#rg24)"/>
<circle cx="1720" cy="740" r="120" fill="#3ec1c9"/>
<g clip-path="url(#clip25)"><circle cx="1684" cy="696.8" r="74.4" fill="#fff" opacity="0.18"/><circle cx="1758.4" cy="790.4" r="103.2" fill="#000" opacity="0.12"/></g>
<circle cx="1682.6" cy="726.2" r="10.2" fill="#15142a"/>
<circle cx="1686.2" cy="722.6" r="3.8" fill="#fff"/>
<circle cx="1730.6" cy="726.2" r="10.2" fill="#15142a"/>
<circle cx="1734.2" cy="722.6" r="3.8" fill="#fff"/>
<ellipse cx="1495" cy="655" rx="130" ry="130" fill="url(#rg26)"/>
<path d="M0,-0.45 C0,-0.85 -0.55,-1.0 -0.85,-0.7 C-1.15,-0.4 -1.0,0.05 -0.7,0.35 C-0.45,0.6 -0.1,0.85 0,1.0 C0.1,0.85 0.45,0.6 0.7,0.35 C1.0,0.05 1.15,-0.4 0.85,-0.7 C0.55,-1.0 0,-0.85 0,-0.45 Z" transform="translate(1495,655) scale(50)" fill="#ff5c8a"/>
<circle cx="1472.5" cy="630" r="8.5" fill="#fff" opacity="0.28"/>
<polygon points="150,128 169.1,161 130.9,161" fill="#ff7a59" opacity="0.9" transform="rotate(12 150 150)"/>
<circle cx="1000" cy="150" r="17" fill="none" stroke="#3ec1c9" stroke-width="5.4" opacity="0.9"/>
<rect x="1036" y="546" width="28" height="28" fill="#ff5c8a" opacity="0.9" transform="rotate(20 1050 560)"/>
<rect x="81" y="626" width="28" height="28" fill="#ffb36b" opacity="0.9" transform="rotate(45 95 640)"/>
<circle cx="880" cy="700" r="12" fill="none" stroke="#ff7a59" stroke-width="3.8" opacity="0.9"/>
<polygon points="1440,312 1455.7,339 1424.3,339" fill="#ff5c8a" opacity="0.9" transform="rotate(-18 1440 330)"/>
<rect x="1838" y="508" width="24" height="24" fill="#3ec1c9" opacity="0.9" transform="rotate(30 1850 520)"/>
<ellipse cx="560" cy="380" rx="610.6" ry="320" fill="url(#rg27)"/>
<text x="246" y="394" font-family="'Microsoft YaHei', 'PingFang SC', 'Noto Sans SC', sans-serif" font-size="200" font-weight="900" text-anchor="middle" dominant-baseline="central" fill="#07070f" opacity="0.5">普</text>
<text x="236" y="380" font-family="'Microsoft YaHei', 'PingFang SC', 'Noto Sans SC', sans-serif" font-size="200" font-weight="900" text-anchor="middle" dominant-baseline="central" fill="#fff4e0">普</text>
<text x="462" y="394" font-family="'Microsoft YaHei', 'PingFang SC', 'Noto Sans SC', sans-serif" font-size="200" font-weight="900" text-anchor="middle" dominant-baseline="central" fill="#07070f" opacity="0.5">通</text>
<text x="452" y="380" font-family="'Microsoft YaHei', 'PingFang SC', 'Noto Sans SC', sans-serif" font-size="200" font-weight="900" text-anchor="middle" dominant-baseline="central" fill="#fff4e0">通</text>
<text x="678" y="394" font-family="'Microsoft YaHei', 'PingFang SC', 'Noto Sans SC', sans-serif" font-size="200" font-weight="900" text-anchor="middle" dominant-baseline="central" fill="#07070f" opacity="0.5">朋</text>
<text x="668" y="380" font-family="'Microsoft YaHei', 'PingFang SC', 'Noto Sans SC', sans-serif" font-size="200" font-weight="900" text-anchor="middle" dominant-baseline="central" fill="#3ec1c9">朋</text>
<text x="894" y="394" font-family="'Microsoft YaHei', 'PingFang SC', 'Noto Sans SC', sans-serif" font-size="200" font-weight="900" text-anchor="middle" dominant-baseline="central" fill="#07070f" opacity="0.5">友</text>
<text x="884" y="380" font-family="'Microsoft YaHei', 'PingFang SC', 'Noto Sans SC', sans-serif" font-size="200" font-weight="900" text-anchor="middle" dominant-baseline="central" fill="#3ec1c9">友</text>
<rect x="254.7" y="508" width="610.6" height="9" rx="4.5" fill="#ff7a59"/>
<text x="512.9" y="591.3" font-family="'Microsoft YaHei', 'PingFang SC', 'Noto Sans SC', sans-serif" font-size="76" font-weight="900" text-anchor="middle" dominant-baseline="central" fill="#07070f" opacity="0.5">陶</text>
<text x="509.1" y="586" font-family="'Microsoft YaHei', 'PingFang SC', 'Noto Sans SC', sans-serif" font-size="76" font-weight="900" text-anchor="middle" dominant-baseline="central" fill="#ffb36b">陶</text>
<text x="614.7" y="591.3" font-family="'Microsoft YaHei', 'PingFang SC', 'Noto Sans SC', sans-serif" font-size="76" font-weight="900" text-anchor="middle" dominant-baseline="central" fill="#07070f" opacity="0.5">喆</text>
<text x="610.9" y="586" font-family="'Microsoft YaHei', 'PingFang SC', 'Noto Sans SC', sans-serif" font-size="76" font-weight="900" text-anchor="middle" dominant-baseline="central" fill="#ffb36b">喆</text>
</svg>
